<svg width="37" height="37" viewBox="0 0 37 37" fill="none" xmlns="http://www.w3.org/2000/svg">
<g id="search_24px">
<path id="icon/action/search_24px" fill-rule="evenodd" clip-rule="evenodd" d="M23.071 21.9764H24.2889L31.9818 29.6847L29.6847 31.9818L21.9764 24.2889V23.071L21.5601 22.6393C19.8026 24.1502 17.521 25.0597 15.0389 25.0597C9.50432 25.0597 5.01807 20.5735 5.01807 15.0389C5.01807 9.50432 9.50432 5.01807 15.0389 5.01807C20.5735 5.01807 25.0597 9.50432 25.0597 15.0389C25.0597 17.521 24.1502 19.8026 22.6393 21.5601L23.071 21.9764ZM8.1014 15.0389C8.1014 18.8776 11.2002 21.9764 15.0389 21.9764C18.8776 21.9764 21.9764 18.8776 21.9764 15.0389C21.9764 11.2002 18.8776 8.1014 15.0389 8.1014C11.2002 8.1014 8.1014 11.2002 8.1014 15.0389Z" fill="#818181"/>
</g>
</svg>
